<svg width="85" height="41" viewBox="0 0 85 41" fill="none" xmlns="http://www.w3.org/2000/svg">
<g clip-path="url(#clip0_8203_1938)">
<g clip-path="url(#clip1_8203_1938)">
<path d="M74.2559 19.1466L74.2188 19.1838C74.479 18.4776 74.9993 18.2174 75.4453 18.2174C76.0772 18.2174 76.6347 18.7006 76.6347 19.4068C76.6347 19.5555 76.6347 19.7413 76.5604 19.9643C75.2595 23.3095 72.509 25.0192 69.8329 25.2794C68.6064 27.3608 66.5993 28.8847 63.7373 28.8847C59.6488 28.8847 57.8276 25.6511 57.8276 22.1201C57.8276 17.7714 60.5781 12.9395 65.1869 12.9395C66.1904 12.9395 67.0453 13.1626 67.7515 13.4599C69.8329 14.2404 71.171 16.9537 71.171 19.8528C71.171 20.782 71.0966 21.7112 70.8736 22.6033C72.2489 22.1201 73.5497 21.005 74.2559 19.1466ZM66.4878 15.9873V15.9502C65.6701 15.9502 65.1869 17.028 65.1869 18.3289C65.1869 20.2245 66.2276 21.9714 67.863 22.6033C68.1232 21.7856 68.2347 20.8564 68.2347 19.7785C68.2347 17.6971 67.6028 15.9873 66.4878 15.9873ZM63.7745 26.1714C64.8152 26.1714 65.8559 25.7254 66.6736 24.7962C64.2577 23.7183 62.7338 21.1909 62.7338 18.7749C62.7338 17.9572 62.8825 17.1024 63.1055 16.359C61.6188 17.5856 60.7639 20.0015 60.7639 22.1201C60.7639 24.8705 62.0648 26.1714 63.7745 26.1714Z" fill="black"/>
<path d="M58.4015 19.1465L58.3643 19.1837C58.6245 18.4775 59.0705 18.1802 59.5165 18.1802C60.1484 18.1802 60.7802 18.7377 60.7802 19.4439C60.7802 19.6297 60.7431 19.7784 60.6687 19.9642C59.2192 23.4952 57.0634 27.6209 53.6068 30.0368L53.5325 30.7802C53.1236 35.2404 50.8564 38.0651 47.9944 38.0651C45.8386 38.0651 44.5749 36.5784 44.5749 34.8315C44.5749 31.6722 47.8085 30.52 50.8192 28.5873C50.8935 27.8067 50.9307 26.9147 50.9678 25.9111C49.4811 27.5465 47.8829 28.2156 46.4705 28.2156C43.6457 28.2156 41.3413 25.9111 41.3413 22.3802C41.3413 16.9536 44.9094 13.3855 48.8864 13.3855H48.9236C51.6369 13.3855 54.536 14.835 54.536 17.4368C54.536 18.2917 54.1643 22.9377 53.867 26.543C55.874 24.6474 57.5466 21.5625 58.4015 19.1465ZM46.8793 25.5395C48.2546 25.5395 50.113 24.6846 51.2652 20.4846C51.451 19.5554 51.5625 18.7377 51.5254 17.7713C51.3024 16.7678 50.4475 16.1731 49.2209 16.1731C46.6935 16.1731 44.2776 18.589 44.2776 22.2687C44.2776 24.4988 45.3183 25.5395 46.8793 25.5395ZM48.2917 35.3519H48.3289C49.1094 35.3519 49.9643 34.8315 50.5218 31.4864C48.8864 32.4527 47.3625 33.4191 47.3625 34.5713C47.3625 35.0545 47.7342 35.3519 48.2917 35.3519Z" fill="black"/>
<path d="M41.9935 19.1466L41.9564 19.1838C42.2165 18.4776 42.7369 18.2174 43.1829 18.2174C43.8148 18.2174 44.3723 18.7006 44.3723 19.4068C44.3723 19.5555 44.3723 19.7413 44.298 19.9643C42.9971 23.3095 40.2466 25.0192 37.5705 25.2794C36.344 27.3608 34.3369 28.8847 31.4749 28.8847C27.3864 28.8847 25.5652 25.6511 25.5652 22.1201C25.5652 17.7714 28.3156 12.9395 32.9245 12.9395C33.928 12.9395 34.7829 13.1626 35.4891 13.4599C37.5705 14.2404 38.9086 16.9537 38.9086 19.8528C38.9086 20.782 38.8342 21.7112 38.6112 22.6033C39.9865 22.1201 41.2873 21.005 41.9935 19.1466ZM34.2254 15.9873V15.9502C33.4077 15.9502 32.9245 17.028 32.9245 18.3289C32.9245 20.2245 33.9652 21.9714 35.6006 22.6033C35.8608 21.7856 35.9723 20.8564 35.9723 19.7785C35.9723 17.6971 35.3404 15.9873 34.2254 15.9873ZM31.5121 26.1714C32.5528 26.1714 33.5935 25.7254 34.4112 24.7962C31.9953 23.7183 30.4714 21.1909 30.4714 18.7749C30.4714 17.9572 30.6201 17.1024 30.8431 16.359C29.3564 17.5856 28.5015 20.0015 28.5015 22.1201C28.5015 24.8705 29.8024 26.1714 31.5121 26.1714Z" fill="black"/>
<path d="M27.4543 17.9732C26.9339 17.9732 26.4879 18.2334 26.1905 18.9396C25.2242 21.3927 23.217 25.5556 21.1727 25.5556C19.8855 25.5556 18.8894 25.2645 17.8828 24.9703C16.8548 24.6699 15.816 24.3662 14.4451 24.3662C13.9619 24.3662 13.2929 24.4406 12.661 24.5521C14.5646 21.9563 15.2757 18.8126 15.9648 12.8703C14.6674 12.7877 13.612 12.548 12.8427 12.3059C12.021 19.8424 11.088 22.716 7.68039 25.5556C7.23436 25.9273 7.01135 26.4477 7.01135 26.9681C7.01135 27.7858 7.71756 28.492 8.60962 28.492C8.90697 28.492 9.24148 28.3805 9.576 28.2318C11.4716 27.3769 12.6239 27.1539 14.0363 27.1539C14.9344 27.1539 16.0092 27.4108 17.1599 27.6857C18.4853 28.0025 19.9114 28.3433 21.2843 28.3433C24.2949 28.3433 26.2649 25.407 28.4578 19.7201C28.5694 19.5343 28.6065 19.3113 28.6065 19.1254C28.6065 18.4192 28.049 17.9732 27.4543 17.9732Z" fill="black"/>
<path fill-rule="evenodd" clip-rule="evenodd" d="M13.0313 10.7678C13.7044 11.0028 14.7552 11.2763 16.1176 11.3573L16.3406 11.3572C20.5407 11.3572 23.2912 8.75534 23.2912 5.63315C23.2912 3.62603 21.7301 2.06494 19.5371 2.06494C16.6008 2.06494 14.5565 4.07206 13.5158 8.04913C12.2149 7.34292 11.3228 6.07918 10.8768 4.48092C10.6538 3.70037 10.1706 3.21717 9.50153 3.21717C8.68382 3.21717 8.16345 3.84905 8.16345 4.70393C8.16345 7.23142 10.1334 9.64739 13.0326 10.7625L13.0313 10.7678ZM16.5636 8.64383C17.1211 6.07918 18.0132 4.85261 19.2026 4.85261C19.8345 4.85261 20.2433 5.2243 20.2433 5.89334C20.2433 7.11991 18.9424 8.56949 16.5636 8.64383Z" fill="black"/>
</g>
</g>
<defs>
<clipPath id="clip0_8203_1938">
<rect width="84" height="36" fill="white" transform="translate(0.344727 2.06494)"/>
</clipPath>
<clipPath id="clip1_8203_1938">
<rect width="70" height="36" fill="white" transform="translate(7.01135 2.06494)"/>
</clipPath>
</defs>
</svg>
