<svg width="121" height="49" viewBox="0 0 121 49" fill="none" xmlns="http://www.w3.org/2000/svg">
<path fill-rule="evenodd" clip-rule="evenodd" d="M33.5594 14.8569L23.6941 34.1427H14.4277L18.5564 26.1498H18.3711C14.965 30.5714 9.88301 33.4822 2.64194 34.1427V26.2605C2.64194 26.2605 7.27423 25.9869 9.99742 23.1238H2.64194V14.8571H10.9087V21.6564L11.0942 21.6556L14.4724 14.8571H20.7243V21.6133L20.9098 21.613L24.4147 14.8569H33.5594Z" fill="black"/>
<path d="M87.3564 32.014H90.0188V16.7319H87.3564V32.014Z" fill="black"/>
<path fill-rule="evenodd" clip-rule="evenodd" d="M72.6787 31.858C73.2573 32.0985 73.8457 32.2188 74.4439 32.2188C75.4321 32.2188 76.3164 31.9783 77.0966 31.4971C77.8767 31.016 78.4814 30.3529 78.9105 29.5077C79.3396 28.656 79.5541 27.6904 79.5541 26.6112C79.5541 25.5319 79.3331 24.5664 78.891 23.7147C78.4488 22.863 77.8345 22.2031 77.0477 21.735C76.2611 21.2604 75.3671 21.0263 74.3658 21.0328C73.7287 21.0328 73.1176 21.1563 72.5324 21.4034C71.9473 21.6505 71.4597 22.0016 71.0695 22.4567C71.0394 22.4913 71.0102 22.5263 70.9818 22.5617V16.7418H68.3096V32.0141H70.9623L70.9569 30.5874C71.0255 30.6715 71.0989 30.7536 71.1768 30.834C71.5994 31.2696 72.1001 31.6109 72.6787 31.858ZM75.4094 29.3907C74.9737 29.6572 74.4764 29.7905 73.9172 29.7905C73.3646 29.7905 72.8574 29.6539 72.3959 29.3809C71.9342 29.1013 71.5669 28.721 71.2938 28.2398C71.0272 27.7588 70.8939 27.2126 70.8939 26.6014C70.8875 25.9903 71.0175 25.4442 71.284 24.963C71.5572 24.4754 71.9244 24.0983 72.3861 23.8318C72.8477 23.5587 73.3581 23.4254 73.9172 23.4319C74.4764 23.4254 74.9737 23.5554 75.4094 23.822C75.8515 24.0821 76.1895 24.4559 76.4236 24.9435C76.6641 25.4247 76.7845 25.9773 76.7845 26.6014C76.7845 27.2256 76.6641 27.7783 76.4236 28.2593C76.1895 28.7405 75.8515 29.1176 75.4094 29.3907Z" fill="black"/>
<path d="M37.4165 17.6585H40.4592L43.1811 27.5988L46.0766 17.6585H48.6123L51.7526 27.3993L54.3662 17.6585H57.1554L53.0399 32.0141H50.4165L47.2232 22.498L44.292 32.0141H41.6393L37.4165 17.6585Z" fill="black"/>
<path fill-rule="evenodd" clip-rule="evenodd" d="M61.649 32.2675C60.5892 32.2741 59.6335 32.04 58.7818 31.5654C57.9365 31.0842 57.2702 30.4178 56.7825 29.5661C56.3014 28.7144 56.0609 27.7424 56.0609 26.6501C56.0609 25.5904 56.3079 24.6314 56.8021 23.7732C57.2961 22.915 57.9658 22.2453 58.811 21.7642C59.6563 21.2831 60.5989 21.0425 61.6392 21.0425C62.8095 21.0425 63.8335 21.3026 64.7112 21.8227C65.5955 22.3428 66.2553 23.0808 66.691 24.0365C67.1331 24.9857 67.2924 26.0748 67.1689 27.3036H58.8152C58.8386 27.7931 58.9607 28.2385 59.1816 28.6397C59.4287 29.0817 59.7733 29.4263 60.2153 29.6734C60.6575 29.9205 61.1516 30.044 61.6978 30.044C62.1138 30.0375 62.5007 29.966 62.8583 29.8295C63.2159 29.6865 63.5182 29.4947 63.7652 29.254C64.0188 29.0135 64.1977 28.7405 64.3017 28.4349H67.0909C66.9218 29.1826 66.5837 29.849 66.0766 30.4341C65.5694 31.0128 64.9323 31.4646 64.1651 31.7897C63.3979 32.1147 62.5592 32.2741 61.649 32.2675ZM59.1914 24.6217C59.0356 24.8934 58.9276 25.1859 58.8675 25.4994H64.405C64.3648 25.1034 64.2425 24.7426 64.0383 24.4169C63.8042 24.0333 63.4857 23.7374 63.0826 23.5294C62.6795 23.3148 62.2244 23.2076 61.7173 23.2076C61.1776 23.2076 60.6868 23.3311 60.2446 23.5782C59.8025 23.8252 59.4514 24.1731 59.1914 24.6217Z" fill="black"/>
<path d="M81.5147 21.2669C81.5147 20.3956 81.7129 19.6219 82.1096 18.9458C82.5061 18.2631 83.062 17.7332 83.7772 17.3561C84.4988 16.9725 85.3409 16.7742 86.303 16.7612V19.1311C85.8544 19.1376 85.4709 19.2318 85.1523 19.4139C84.8402 19.5894 84.5997 19.8463 84.4306 20.1843C84.275 20.4956 84.191 20.8564 84.1787 21.2669H86.2445V23.5197H84.1771V32.0141H81.5147V23.5197H79.7983V21.2669H81.5147Z" fill="black"/>
<path fill-rule="evenodd" clip-rule="evenodd" d="M96.7865 32.248C95.7007 32.248 94.7287 32.0107 93.8705 31.5361C93.0188 31.0549 92.3492 30.3918 91.8616 29.5466C91.3804 28.6949 91.1399 27.7294 91.1399 26.6501C91.1399 25.5644 91.3804 24.5956 91.8616 23.7439C92.3492 22.8857 93.0188 22.2193 93.8705 21.7447C94.7287 21.27 95.7007 21.0327 96.7865 21.0327C97.8788 21.0327 98.8541 21.27 99.7122 21.7447C100.577 22.2193 101.25 22.8824 101.731 23.7341C102.212 24.5859 102.456 25.5578 102.462 26.6501C102.456 27.7294 102.212 28.6949 101.731 29.5466C101.256 30.3918 100.587 31.0549 99.7219 31.5361C98.8573 32.0107 97.8788 32.248 96.7865 32.248ZM96.7865 29.8002C97.3587 29.8002 97.8658 29.6701 98.3079 29.4101C98.75 29.1435 99.0913 28.7729 99.3319 28.2983C99.5725 27.8172 99.6927 27.2677 99.6927 26.6501C99.6927 26.026 99.5725 25.4733 99.3319 24.9922C99.0913 24.5111 98.75 24.1405 98.3079 23.8804C97.8658 23.6139 97.3587 23.4806 96.7865 23.4806C96.2209 23.4806 95.717 23.6139 95.2748 23.8804C94.8393 24.1405 94.5012 24.5111 94.2606 24.9922C94.0201 25.4733 93.9031 26.026 93.9095 26.6501C93.9095 27.2677 94.0298 27.8172 94.2704 28.2983C94.5175 28.7729 94.8555 29.1435 95.2846 29.4101C95.7202 29.6701 96.2209 29.8002 96.7865 29.8002Z" fill="black"/>
<path d="M105.339 21.2668H102.375L105.583 32.014H108.177L110.288 25.1498L112.566 32.014H115.121L118.34 21.2668H115.658L113.832 27.9563L111.815 21.2668H109.221L107.213 28.1036L105.339 21.2668Z" fill="black"/>
</svg>
